# xmcd
#
# Track frame offsets:
#	150
#	11820
#	26891
#	41955
#	56408
#	69821
#	80811
#	94744
#	107858
#	120616
#	136674
#	148946
#	162183
#	180132
#	191259
#	202834
#	221340
#
# Disc length: 3143 seconds
#
# Revision: 0
# Processed by: cddbd v1.5.2PL0 Copyright (c) Steve Scherf et al.
# Submitted via: EasyCDDAExtractor 16.0.9.1
#
DISCID=e60c4511
DTITLE=Paul Mauriat And His Orchestra - Melody 101 - Disc 6
DYEAR=2010
DGENRE=Musical
TTITLE0=Love is Blue (愛是憂鬱)
TTITLE1=On Ne Vit Pas Sans Se Dire Adieu (法國名曲-不說再見就不能相見)
TTITLE2=Romance (Eine Kleine Nachtmusik) (浪漫小夜曲)
TTITLE3=Reverie (舒曼夢幻曲)
TTITLE4=Petite Melodie (可愛的旋律)
TTITLE5=Minuetto (薔薇色的小步舞曲)
TTITLE6=Pearl Fishers (採珠者)
TTITLE7=Mama (Cher 主唱作品)
TTITLE8=Mamy Blue (意大利歌手 Ricky Shayne 的抒情歌曲)
TTITLE9=Love's Theme (愛的主題曲)
TTITLE10=Taka Takata (塔卡舞曲)
TTITLE11=Tombe La Neige (落雪了)
TTITLE12=Penelope (愛琴海的珍珠)
TTITLE13=Pour Un Flirt (為青春乾杯)
TTITLE14=El Bimbo (風靡日本樂迷的廣告曲)
TTITLE15=Ete D'Amour (愛戀的夏天)
TTITLE16=Goodbye My Love Goodbye (淡淡的希臘哀愁)
EXTD=
EXTT0=
EXTT1=
EXTT2=
EXTT3=
EXTT4=
EXTT5=
EXTT6=
EXTT7=
EXTT8=
EXTT9=
EXTT10=
EXTT11=
EXTT12=
EXTT13=
EXTT14=
EXTT15=
EXTT16=
PLAYORDER=
